# xmcd
#
# Track frame offsets:
#	150
#	13474
#	31905
#	49030
#	72267
#	98370
#	116612
#	134115
#	147322
#	167965
#	184110
#
# Disc length: 2607 seconds
#
# Revision: 1
# Processed by: cddbd v1.5.2PL0 Copyright (c) Steve Scherf et al.
# Submitted via: audiograbber 1.83.01
#
DISCID=9e0a2d0b
DTITLE=Bruce Henderson - Beyond the pale
DYEAR=2001
DGENRE=Country
TTITLE0=August
TTITLE1=Speed rack
TTITLE2=Bone tired
TTITLE3=I wanted to
TTITLE4=I never lost an arm
TTITLE5=Look at you now
TTITLE6=Flatland
TTITLE7=Wash it all away
TTITLE8=Running out of light
TTITLE9=Mexico
TTITLE10=Swimming through the ashes (bonus track)
EXTD=
EXTT0=
EXTT1=
EXTT2=
EXTT3=
EXTT4=
EXTT5=
EXTT6=
EXTT7=
EXTT8=
EXTT9=
EXTT10=
PLAYORDER=
